# xmcd
#
# Track frame offsets: 
#        150
#        21584
#        39245
#        55844
#        71350
#        85543
#        107614
#        127159
#        142420
#        158523
#        171803
#        192442
#        212638
#        230332
#        247428
#
# Disc length: 3776 seconds
#
# Revision: 0
# Processed by: cddbd v1.5.2PL0 Copyright (c) Steve Scherf et al.
# Submitted via: ExactAudioCopy v1.3
#
DISCID=d60ebe0f
DTITLE=Crazy Hambones - Live In PiK, Poland
DYEAR=2005
DGENRE=Blues
TTITLE0=Have A Good Time
TTITLE1=All Around The World
TTITLE2=Canned Heat
TTITLE3=Come Back Baby
TTITLE4=Shake, Rattle and Roll
TTITLE5=All Night
TTITLE6=Roll All Night Long
TTITLE7=Fourty Days
TTITLE8=Big Road Blues
TTITLE9=Dark Was The Night, Cold Was The Ground
TTITLE10=Walkin' Blues
TTITLE11=Good Morning Little School Girl
TTITLE12=My Cadillac
TTITLE13=Bulfrog Blues
TTITLE14=Walkin' - Jammin' Version With Audience
EXTD=
EXTT0=
EXTT1=
EXTT2=
EXTT3=
EXTT4=
EXTT5=
EXTT6=
EXTT7=
EXTT8=
EXTT9=
EXTT10=
EXTT11=
EXTT12=
EXTT13=
EXTT14=
PLAYORDER=
